<svg width="168" height="28" viewBox="0 0 168 28" fill="none" xmlns="http://www.w3.org/2000/svg">
  <path d="M28.358 7.667C27.413 3.267 23.694 0 19.217 0H11.141C10.079 0 9.214 0.864 9.214 1.926V26.074C9.214 27.136 10.079 28 11.141 28H19.217C23.694 28 27.413 24.733 28.358 20.333C28.358 20.333 28.895 17.873 28.895 14C28.895 10.127 28.358 7.667 28.358 7.667Z" fill="#A6B0C3"/>
  <path d="M19.215 24.889H15.288C14.226 24.889 13.362 24.024 13.362 22.963V5.037C13.362 3.976 14.226 3.111 15.288 3.111H19.215C22.16 3.111 24.575 5.411 24.948 8.296C24.948 8.296 25.305 10.000 25.305 14.000C25.305 18.000 24.948 19.704 24.948 19.704C24.575 22.589 22.16 24.889 19.215 24.889Z" fill="#FFFFFF"/>
  <path d="M0 1.926V26.074C0 27.136 0.864 28 1.926 28H7.288V0H1.926C0.864 0 0 0.864 0 1.926Z" fill="#A6B0C3"/>
  <path d="M38.987 17.778L42.914 10.833H39.843L37.667 14.833L35.492 10.833H32.421L36.348 17.778L32.034 25.278H35.105L37.667 20.722L40.23 25.278H43.301L38.987 17.778Z" fill="#FFFFFF"/>
  <path d="M119.348 14C119.348 10.127 122.49 7 126.38 7C130.27 7 133.412 10.127 133.412 14C133.412 17.873 130.27 21 126.38 21C122.49 21 119.348 17.873 119.348 14ZM123.032 14C123.032 15.85 124.52 17.333 126.38 17.333C128.24 17.333 129.728 15.85 129.728 14C129.728 12.15 128.24 10.667 126.38 10.667C124.52 10.667 123.032 12.15 123.032 14Z" fill="#FFFFFF"/>
  <path d="M43.92 14C43.92 10.127 47.063 7 50.953 7C54.843 7 57.985 10.127 57.985 14C57.985 17.873 54.843 21 50.953 21C47.063 21 43.92 17.873 43.92 14ZM47.605 14C47.605 15.85 49.093 17.333 50.953 17.333C52.813 17.333 54.301 15.85 54.301 14C54.301 12.15 52.813 10.667 50.953 10.667C49.093 10.667 47.605 12.15 47.605 14Z" fill="#FFFFFF"/>
  <path d="M58.615 7.389H62.155V9.102C62.818 7.989 64.07 7.268 65.463 7.268C68.223 7.268 70.461 9.497 70.461 12.246V20.611H66.921V13.164C66.921 11.796 65.806 10.686 64.432 10.686C63.057 10.686 61.942 11.796 61.942 13.164V20.611H58.402V7.389H58.615Z" fill="#FFFFFF"/>
  <path d="M84.671 14C84.671 10.127 87.813 7 91.703 7C95.593 7 98.735 10.127 98.735 14C98.735 17.873 95.593 21 91.703 21C87.813 21 84.671 17.873 84.671 14ZM88.356 14C88.356 15.85 89.844 17.333 91.703 17.333C93.563 17.333 95.051 15.85 95.051 14C95.051 12.15 93.563 10.667 91.703 10.667C89.844 10.667 88.356 12.15 88.356 14Z" fill="#FFFFFF"/>
  <path d="M134.042 7.389H137.582V9.102C138.245 7.989 139.498 7.268 140.89 7.268C143.65 7.268 145.888 9.497 145.888 12.246V20.611H142.348V13.164C142.348 11.796 141.233 10.686 139.859 10.686C138.484 10.686 137.369 11.796 137.369 13.164V20.611H133.829V7.389H134.042Z" fill="#FFFFFF"/>
  <path d="M147.158 3.667H150.698V20.611H147.158V3.667Z" fill="#FFFFFF"/>
  <path d="M152.176 3.667H155.716V20.611H152.176V3.667Z" fill="#FFFFFF"/>
  <path d="M157.194 7.389H160.734V20.611H157.194V7.389Z" fill="#FFFFFF"/>
  <path d="M158.964 5.556C160.15 5.556 161.126 4.583 161.126 3.389C161.126 2.194 160.15 1.222 158.964 1.222C157.779 1.222 156.803 2.194 156.803 3.389C156.803 4.583 157.779 5.556 158.964 5.556Z" fill="#FFFFFF"/>
  <path d="M162.604 7.389H166.144V9.102C166.807 7.989 168.059 7.268 169.452 7.268C172.212 7.268 174.45 9.497 174.45 12.246V20.611H170.91V13.164C170.91 11.796 169.795 10.686 168.42 10.686C167.046 10.686 165.931 11.796 165.931 13.164V20.611H162.39V7.389H162.604Z" fill="#FFFFFF"/>
  <path d="M99.365 7.389H102.905V9.102C103.568 7.989 104.821 7.268 106.213 7.268C108.973 7.268 111.211 9.497 111.211 12.246V20.611H107.671V13.164C107.671 11.796 106.556 10.686 105.182 10.686C103.807 10.686 102.692 11.796 102.692 13.164V20.611H99.152V7.389H99.365Z" fill="#FFFFFF"/>
  <path d="M71.09 7.389H74.63V9.102C75.293 7.989 76.546 7.268 77.938 7.268C80.698 7.268 82.936 9.497 82.936 12.246V20.611H79.396V13.164C79.396 11.796 78.281 10.686 76.907 10.686C75.532 10.686 74.417 11.796 74.417 13.164V20.611H70.877V7.389H71.09Z" fill="#FFFFFF"/>
  <path d="M111.84 14C111.84 10.127 114.983 7 118.872 7C122.762 7 125.905 10.127 125.905 14C125.905 17.873 122.762 21 118.872 21C114.983 21 111.84 17.873 111.84 14ZM115.524 14C115.524 15.85 117.013 17.333 118.872 17.333C120.732 17.333 122.22 15.85 122.22 14C122.22 12.15 120.732 10.667 118.872 10.667C117.013 10.667 115.524 12.15 115.524 14Z" fill="#FFFFFF"/>
</svg> 